<?xml version="1.0" encoding="UTF-8" standalone="no"?>
<!-- Created with Inkscape (http://www.inkscape.org/) -->

<svg
   xmlns:dc="http://purl.org/dc/elements/1.1/"
   xmlns:cc="http://creativecommons.org/ns#"
   xmlns:rdf="http://www.w3.org/1999/02/22-rdf-syntax-ns#"
   xmlns:svg="http://www.w3.org/2000/svg"
   xmlns="http://www.w3.org/2000/svg"
   xmlns:sodipodi="http://sodipodi.sourceforge.net/DTD/sodipodi-0.dtd"
   xmlns:inkscape="http://www.inkscape.org/namespaces/inkscape"
   width="243.95763"
   height="84.455002"
   id="svg2"
   version="1.1"
   inkscape:version="0.48.4 r9939"
   sodipodi:docname="Nou document 1">
  <defs
     id="defs4">
    <clipPath
       id="clipPath3853"
       clipPathUnits="userSpaceOnUse">
      <path
         id="path3855"
         d="m 0,841.89 1190.55,0 L 1190.55,0 0,0 0,841.89 z"
         inkscape:connector-curvature="0" />
    </clipPath>
    <clipPath
       id="clipPath3023"
       clipPathUnits="userSpaceOnUse">
      <path
         id="path3025"
         d="m 0,841.89 1190.55,0 L 1190.55,0 0,0 0,841.89 z"
         inkscape:connector-curvature="0" />
    </clipPath>
  </defs>
  <sodipodi:namedview
     id="base"
     pagecolor="#ffffff"
     bordercolor="#666666"
     borderopacity="1.0"
     inkscape:pageopacity="0.0"
     inkscape:pageshadow="2"
     inkscape:zoom="0.98994949"
     inkscape:cx="106.58912"
     inkscape:cy="76.749388"
     inkscape:document-units="px"
     inkscape:current-layer="capa1"
     showgrid="false"
     fit-margin-top="0"
     fit-margin-left="0"
     fit-margin-right="0"
     fit-margin-bottom="0"
     inkscape:window-width="1301"
     inkscape:window-height="744"
     inkscape:window-x="65"
     inkscape:window-y="24"
     inkscape:window-maximized="1" />
  <metadata
     id="metadata7">
    <rdf:RDF>
      <cc:Work
         rdf:about="">
        <dc:format>image/svg+xml</dc:format>
        <dc:type
           rdf:resource="http://purl.org/dc/dcmitype/StillImage" />
        <dc:title></dc:title>
      </cc:Work>
    </rdf:RDF>
  </metadata>
  <g
     inkscape:label="Capa 1"
     inkscape:groupmode="layer"
     id="capa1"
     transform="translate(217.15531,-530.95465)">
    <g
       id="g8593">
      <g
         transform="matrix(1.25,0,0,-1.25,-184.74806,579.38465)"
         id="g4243">
        <path
           id="path4245"
           style="fill:#231f20;fill-opacity:1;fill-rule:nonzero;stroke:none"
           d="m 0,0 -0.098,0 c -1.296,0 -1.757,0.563 -1.757,1.904 l 0.046,10.852 c 0,0.414 -0.088,0.635 -0.545,0.635 -0.12,0 -0.392,-0.032 -0.809,-0.077 -0.949,-0.111 -2.708,-0.267 -4.81,-0.33 l -0.093,-0.004 0,-1.357 0.095,0 c 1.108,0 1.844,-0.303 1.844,-1.588 l -0.042,-3.16 c 0,-5.236 -2.099,-6.25 -3.631,-6.25 -1.253,0 -1.721,1.299 -1.721,2.389 l 0.06,9.742 c 0,0.414 -0.088,0.635 -0.545,0.635 -0.118,0 -0.396,-0.032 -0.812,-0.077 -0.947,-0.111 -2.505,-0.267 -4.604,-0.33 l -0.095,-0.004 0,-1.357 0.098,0 c 1.109,0 1.843,-0.303 1.843,-1.588 l -0.059,-6.572 c 0,-4.283 2.215,-5.182 4.07,-5.182 2.769,0 4.357,1.807 5.221,2.772 0.238,0.271 0.481,0.547 0.567,0.547 0.044,0 0.173,0 0.173,-0.204 l 0,-2.66 c 0,-0.396 0.266,-0.455 0.424,-0.455 0.121,0 0.388,0.035 0.793,0.092 0.977,0.133 2.618,0.268 4.289,0.268 L 0,-1.359 0,0 z"
           inkscape:connector-curvature="0" />
      </g>
      <g
         transform="matrix(1.25,0,0,-1.25,-148.08794,563.3544)"
         id="g4247">
        <path
           id="path4249"
           style="fill:#231f20;fill-opacity:1;fill-rule:nonzero;stroke:none"
           d="m 0,0 -3.442,0 0.286,2.225 c 0.424,3.045 0.976,4.341 1.847,4.341 0.35,0 0.563,-0.177 0.563,-0.468 0,-0.194 -0.025,-0.291 -0.054,-0.393 -0.03,-0.117 -0.066,-0.234 -0.066,-0.475 0,-0.501 0.313,-1.087 1.205,-1.087 1.076,0 1.558,0.83 1.558,1.652 0,1.353 -0.971,2.129 -2.667,2.129 -3.775,0 -4.796,-5.297 -5.287,-7.924 l -3.044,0 -0.279,-1.357 3.117,0 -0.202,-1.319 C -6.603,-3.563 -6.738,-4.443 -6.873,-5.34 l -0.231,-1.521 c -1.327,-8.762 -1.998,-12.655 -3.447,-12.655 -0.162,0 -0.202,0.049 -0.202,0.233 0,0.062 0.019,0.138 0.041,0.226 0.039,0.127 0.078,0.289 0.078,0.494 0,0.6 -0.446,1.022 -1.081,1.022 -0.953,0 -1.383,-0.686 -1.383,-1.324 0,-1.182 0.862,-2.01 2.101,-2.01 2.215,0 4.935,2.557 7.382,19.518 l 3.376,0 L 0,0 z"
           inkscape:connector-curvature="0" />
      </g>
      <g
         transform="matrix(1.25,0,0,-1.25,-146.37281,577.03115)"
         id="g4251">
        <path
           id="path4253"
           style="fill:#231f20;fill-opacity:1;fill-rule:nonzero;stroke:none"
           d="m 0,0 c -0.974,0 -1.767,-0.795 -1.767,-1.773 0,-0.975 0.793,-1.77 1.767,-1.77 0.979,0 1.774,0.795 1.774,1.77 C 1.774,-0.795 0.979,0 0,0"
           inkscape:connector-curvature="0" />
      </g>
      <path
         id="path4255"
         style="fill:#231f20;fill-opacity:1;fill-rule:nonzero;stroke:none"
         d="m -217.15531,615.40965 84.4525,0 0,-84.455 -84.4525,0 0,84.455 z m 4.5425,-79.91125 75.37,0 0,75.36625 -75.37,0 0,-75.36625 z"
         inkscape:connector-curvature="0" />
      <g
         transform="matrix(1.25,0,0,-1.25,-168.64818,562.6464)"
         id="g4257">
        <path
           id="path4259"
           style="fill:#231f20;fill-opacity:1;fill-rule:nonzero;stroke:none"
           d="m 0,0 c -2.713,0 -4.179,-1.883 -4.811,-2.783 -0.036,1.795 -0.703,2.633 -2.094,2.633 -2.25,0 -3.566,-3.071 -4.275,-4.723 l -0.035,-0.078 1.061,-0.6 0.047,0.09 c 0.049,0.1 0.111,0.244 0.19,0.414 0.459,1.024 1.416,3.149 2.41,3.149 0.542,0 0.622,-0.666 0.622,-1.067 0,-0.576 -0.173,-1.482 -0.473,-2.851 l -2.812,-12.049 c -0.406,-1.787 -0.601,-2.074 -2.387,-2.074 l -0.079,0 -0.244,-1.36 7.545,0 0.313,1.36 -0.119,0 c -2.332,0 -2.719,0.025 -2.719,0.919 0,0.188 0.106,0.635 0.187,0.997 l 1.334,5.65 c 0.726,-1.512 1.61,-2.736 4.301,-2.736 4.629,0 7.095,5.211 7.095,8.972 C 5.057,-3.082 3.494,0 0,0 m -2.636,-13.23 c -1.927,0 -2.609,1.955 -2.609,3.626 0,3.239 1.54,7.725 4.435,7.725 2.304,0 2.789,-1.959 2.789,-3.6 0,-2.427 -1.162,-7.751 -4.615,-7.751"
           inkscape:connector-curvature="0" />
      </g>
      <g
         transform="matrix(1.25,0,0,-1.25,-118.21606,546.11565)"
         id="g4261">
        <path
           id="path4263"
           style="fill:#231f20;fill-opacity:1;fill-rule:nonzero;stroke:none"
           d="m 0,0 0,-5.178 c 0,-2.615 1.743,-4.427 5.355,-4.427 3.914,0 5.07,2.117 5.07,4.785 l 0,4.873 c 0,1.299 0.178,1.957 1.636,1.957 l 0,0.818 -4.429,0 0,-0.818 c 1.103,0 1.903,-0.338 1.903,-1.957 l 0,-4.873 c 0,-0.481 -0.036,-1.299 -0.249,-1.832 -0.462,-1.141 -1.423,-1.869 -3.255,-1.869 -1.975,0 -2.953,1.156 -2.953,3.343 l 0,5.944 c 0,0.746 0.302,1.244 1.476,1.244 l 0.427,0 0,0.818 -6.724,0 0,-0.818 C -0.356,2.01 0,1.902 0,0"
           inkscape:connector-curvature="0" />
      </g>
      <g
         transform="matrix(1.25,0,0,-1.25,-101.49244,549.45065)"
         id="g4265">
        <path
           id="path4267"
           style="fill:#231f20;fill-opacity:1;fill-rule:nonzero;stroke:none"
           d="m 0,0 0,-4.84 c 0,-0.889 -0.356,-1.139 -1.192,-1.139 l 0,-0.693 4.679,0 0,0.693 c -0.552,0 -1.032,0.09 -1.032,0.836 l 0,3.151 c 0,1.654 0.925,2.65 1.832,2.65 0.534,0 1.032,-0.34 1.032,-1.406 l 0,-4.412 c 0,-0.711 -0.498,-0.819 -1.049,-0.819 l 0,-0.693 4.589,0 0,0.693 c -0.711,0 -1.085,0.198 -1.085,0.874 l 0,4.109 c 0,1.85 -0.872,2.934 -2.615,2.934 -1.886,0 -2.633,-1.903 -2.828,-1.903 -0.089,0 -0.107,0.125 -0.107,0.373 l 0,1.246 c 0,0.16 -0.018,0.284 -0.16,0.284 -0.249,0 -1.85,-0.231 -3.345,-0.266 l 0,-0.693 C -0.48,0.979 0,0.871 0,0"
           inkscape:connector-curvature="0" />
      </g>
      <g
         transform="matrix(1.25,0,0,-1.25,-86.602935,544.75828)"
         id="g4269">
        <path
           id="path4271"
           style="fill:#231f20;fill-opacity:1;fill-rule:nonzero;stroke:none"
           d="M 0,0 C 0.747,0 1.37,0.604 1.37,1.352 1.37,2.098 0.747,2.703 0,2.703 -0.747,2.703 -1.37,2.098 -1.37,1.352 -1.37,0.604 -0.747,0 0,0"
           inkscape:connector-curvature="0" />
      </g>
      <g
         transform="matrix(1.25,0,0,-1.25,-83.223435,556.92377)"
         id="g4273">
        <path
           id="path4275"
           style="fill:#231f20;fill-opacity:1;fill-rule:nonzero;stroke:none"
           d="m 0,0 c -0.747,0 -1.174,0 -1.174,0.908 l 0,6.51 c 0,0.428 -0.071,0.498 -0.267,0.498 -0.516,0 -1.601,-0.193 -3.469,-0.266 l 0,-0.693 c 0.783,0 1.281,-0.125 1.281,-1.246 l 0,-4.803 C -3.629,0 -4.074,0 -4.91,0 l 0,-0.693 4.91,0 L 0,0 z"
           inkscape:connector-curvature="0" />
      </g>
      <g
         transform="matrix(1.25,0,0,-1.25,-81.49981,549.67277)"
         id="g4277">
        <path
           id="path4279"
           style="fill:#231f20;fill-opacity:1;fill-rule:nonzero;stroke:none"
           d="m 0,0 2.828,-6.602 1.495,0 2.686,6.62 c 0.373,0.925 0.623,1.084 1.049,1.138 l 0,0.694 -3.095,0 0,-0.694 c 0.694,0 1.121,-0.267 1.121,-0.908 0,-0.605 -0.338,-1.494 -0.587,-2.117 L 4.696,-3.896 C 4.625,-4.074 4.59,-4.252 4.5,-4.252 c -0.053,0 -0.106,0.106 -0.213,0.356 L 3.22,-1.441 c -0.392,0.906 -0.623,1.494 -0.623,1.902 0,0.623 0.57,0.695 1.068,0.695 l 0,0.694 -4.893,0 0,-0.694 C -0.498,1.156 -0.409,0.961 0,0"
           inkscape:connector-curvature="0" />
      </g>
      <g
         transform="matrix(1.25,0,0,-1.25,-66.19706,558.12252)"
         id="g4281">
        <path
           id="path4283"
           style="fill:#231f20;fill-opacity:1;fill-rule:nonzero;stroke:none"
           d="m 0,0 c 1.814,0 3.238,1.066 3.789,2.863 l -0.8,0 C 2.615,1.957 1.975,1.084 0.712,1.084 c -0.997,0 -2.011,0.801 -2.011,3.096 l 0,0.338 5.035,0 c 0,2.507 -1.317,4.359 -3.683,4.359 -2.17,0 -4.091,-1.869 -4.091,-4.447 C -4.038,1.867 -2.117,0 0,0 m -1.299,5.656 c 0,1.742 0.481,2.526 1.21,2.526 0.818,0 1.21,-0.854 1.21,-2.436 l 0,-0.357 C 1.121,5.266 1.085,5.211 0.979,5.211 l -2.278,0 0,0.445 z"
           inkscape:connector-curvature="0" />
      </g>
      <g
         transform="matrix(1.25,0,0,-1.25,-53.77081,556.92377)"
         id="g4285">
        <path
           id="path4287"
           style="fill:#231f20;fill-opacity:1;fill-rule:nonzero;stroke:none"
           d="m 0,0 c -1.156,0 -1.779,0 -1.779,1.086 l 0,2.723 c 0,1.742 0.658,2.507 0.925,2.507 0.249,0 0.053,-1.316 1.263,-1.316 0.819,0 1.21,0.658 1.21,1.387 0,0.908 -0.481,1.529 -1.388,1.529 -1.423,0 -1.974,-1.902 -2.241,-1.902 -0.089,0 -0.089,0.125 -0.089,0.195 l 0,1.459 c 0,0.16 -0.036,0.248 -0.16,0.248 -0.196,0 -2.153,-0.23 -3.434,-0.266 l 0,-0.693 c 0.979,0 1.459,-0.107 1.459,-0.978 l 0,-4.893 C -4.234,0 -4.892,0 -5.746,0 l 0,-0.693 5.746,0 L 0,0 z"
           inkscape:connector-curvature="0" />
      </g>
      <g
         transform="matrix(1.25,0,0,-1.25,-44.75781,555.90078)"
         id="g4289">
        <path
           id="path4291"
           style="fill:#231f20;fill-opacity:1;fill-rule:nonzero;stroke:none"
           d="m 0,0 c 0,-0.658 -0.569,-1.084 -1.405,-1.084 -1.246,0 -2.331,0.943 -2.526,2.205 l -0.676,0 c 0.017,-0.48 0.053,-0.943 0.053,-1.422 0,-0.482 -0.036,-0.961 -0.053,-1.441 l 0.64,0 c 0.071,0.283 0.267,0.443 0.481,0.443 0.391,0 1.049,-0.478 2.152,-0.478 1.708,0 2.971,1.173 2.971,2.72 0,3.239 -4.75,2.828 -4.75,4.395 0,0.746 0.534,1.066 1.281,1.066 1.228,0 1.957,-0.675 2.33,-1.814 l 0.587,0 C 1.068,5 1.032,5.408 1.032,5.818 c 0,0.409 0.036,0.817 0.053,1.227 l -0.551,0 C 0.445,6.814 0.231,6.742 -0.053,6.742 -0.516,6.742 -0.765,7.1 -1.814,7.1 -3.326,7.1 -4.75,6.244 -4.75,4.715 -4.75,1.459 0,2.135 0,0"
           inkscape:connector-curvature="0" />
      </g>
      <g
         transform="matrix(1.25,0,0,-1.25,-35.650185,556.92377)"
         id="g4293">
        <path
           id="path4295"
           style="fill:#231f20;fill-opacity:1;fill-rule:nonzero;stroke:none"
           d="m 0,0 c -0.747,0 -1.174,0 -1.174,0.908 l 0,6.51 c 0,0.428 -0.071,0.498 -0.267,0.498 -0.516,0 -1.601,-0.193 -3.469,-0.266 l 0,-0.693 c 0.783,0 1.281,-0.125 1.281,-1.246 l 0,-4.803 C -3.629,0 -4.074,0 -4.91,0 l 0,-0.693 4.91,0 L 0,0 z"
           inkscape:connector-curvature="0" />
      </g>
      <g
         transform="matrix(1.25,0,0,-1.25,-39.029685,544.75828)"
         id="g4297">
        <path
           id="path4299"
           style="fill:#231f20;fill-opacity:1;fill-rule:nonzero;stroke:none"
           d="M 0,0 C 0.747,0 1.37,0.604 1.37,1.352 1.37,2.098 0.747,2.703 0,2.703 -0.747,2.703 -1.37,2.098 -1.37,1.352 -1.37,0.604 -0.747,0 0,0"
           inkscape:connector-curvature="0" />
      </g>
      <g
         transform="matrix(1.25,0,0,-1.25,-33.71781,555.12202)"
         id="g4301">
        <path
           id="path4303"
           style="fill:#231f20;fill-opacity:1;fill-rule:nonzero;stroke:none"
           d="m 0,0 c 0,-1.637 0.694,-2.402 2.152,-2.402 1.388,0 2.189,0.765 2.687,1.994 L 4.252,-0.143 C 4.003,-0.568 3.7,-1.121 3.131,-1.121 c -0.338,0 -0.676,0.16 -0.676,0.943 l 0,5.694 2.01,0 0,0.693 -2.01,0 0,3.451 -0.658,0 C 1.245,8.131 0.409,6.582 -1.352,6.102 l 0,-0.586 L 0,5.516 0,0 z"
           inkscape:connector-curvature="0" />
      </g>
      <g
         transform="matrix(1.25,0,0,-1.25,-26.54006,555.5224)"
         id="g4305">
        <path
           id="path4307"
           style="fill:#231f20;fill-opacity:1;fill-rule:nonzero;stroke:none"
           d="m 0,0 c 0,-1.174 0.836,-2.08 2.312,-2.08 1.495,0 2.598,0.976 2.936,1.244 0.178,-0.303 0.551,-1.244 1.779,-1.244 0.676,0 1.512,0.32 1.512,1.156 0,0.106 -0.054,0.178 -0.124,0.178 -0.072,0 -0.179,-0.055 -0.339,-0.055 -0.266,0 -0.426,0.143 -0.426,0.516 l 0,3.363 c 0,2.438 -1.086,3.717 -4.163,3.717 -1.726,0 -3.113,-0.676 -3.113,-1.955 0,-0.695 0.445,-1.336 1.209,-1.336 0.89,0 1.246,0.553 1.246,1.139 0,0.818 -0.517,0.695 -0.517,1.068 0,0.213 0.25,0.391 0.961,0.391 1.246,0 1.921,-0.534 1.921,-1.868 l 0,-1.173 C 3.345,2.971 0,2.49 0,0 m 3.522,-0.996 c -0.729,0 -1.067,0.516 -1.067,1.476 0,1.655 1.975,2.01 2.651,2.01 0.088,0 0.088,-0.105 0.088,-0.799 0,-1.798 -0.675,-2.687 -1.672,-2.687"
           inkscape:connector-curvature="0" />
      </g>
      <g
         transform="matrix(1.25,0,0,-1.25,-13.883185,555.12202)"
         id="g4309">
        <path
           id="path4311"
           style="fill:#231f20;fill-opacity:1;fill-rule:nonzero;stroke:none"
           d="m 0,0 c 0,-1.637 0.694,-2.402 2.152,-2.402 1.388,0 2.189,0.765 2.687,1.994 L 4.252,-0.143 C 4.003,-0.568 3.7,-1.121 3.131,-1.121 c -0.338,0 -0.676,0.16 -0.676,0.943 l 0,5.694 2.01,0 0,0.693 -2.01,0 0,3.451 -0.658,0 C 1.245,8.131 0.409,6.582 -1.352,6.102 l 0,-0.586 L 0,5.516 0,0 z"
           inkscape:connector-curvature="0" />
      </g>
      <g
         transform="matrix(1.25,0,0,-1.25,-111.61143,580.1684)"
         id="g4313">
        <path
           id="path4315"
           style="fill:#231f20;fill-opacity:1;fill-rule:nonzero;stroke:none"
           d="m 0,0 -0.356,0 c -1.263,0 -1.672,0.072 -1.672,0.98 l 0,3.807 c 0,0.141 0.071,0.195 0.303,0.195 l 1.12,0 c 2.188,0 4.964,0.569 4.964,3.219 0,1.869 -1.299,3.149 -4.644,3.149 l -6.422,0 0,-0.819 c 1.068,0 1.602,-0.052 1.602,-1.209 l 0,-8.342 C -5.105,0.41 -5.39,0 -6.208,0 l -0.499,0 0,-0.818 6.707,0 L 0,0 z m -2.028,9.375 c 0,0.891 0.374,1.211 1.103,1.211 1.441,0 1.886,-0.996 1.886,-2.277 0,-2.028 -0.73,-2.563 -2.686,-2.563 -0.232,0 -0.303,0.055 -0.303,0.197 l 0,3.432 z"
           inkscape:connector-curvature="0" />
      </g>
      <g
         transform="matrix(1.25,0,0,-1.25,-100.52743,570.42715)"
         id="g4317">
        <path
           id="path4319"
           style="fill:#231f20;fill-opacity:1;fill-rule:nonzero;stroke:none"
           d="m 0,0 c -2.277,0 -4.305,-1.869 -4.305,-4.447 0,-2.563 1.921,-4.43 4.305,-4.43 2.384,0 4.305,1.867 4.305,4.43 C 4.305,-1.869 2.277,0 0,0 m 0,-8.184 c -0.907,0 -1.565,0.463 -1.565,3.737 0,3.326 0.765,3.752 1.565,3.752 0.8,0 1.565,-0.426 1.565,-3.752 0,-3.274 -0.658,-3.737 -1.565,-3.737"
           inkscape:connector-curvature="0" />
      </g>
      <g
         transform="matrix(1.25,0,0,-1.25,-94.414185,570.76165)"
         id="g4321">
        <path
           id="path4323"
           style="fill:#231f20;fill-opacity:1;fill-rule:nonzero;stroke:none"
           d="m 0,0 0,-0.693 c 0.623,0 1.085,-0.108 1.085,-0.979 l 0,-4.892 C 1.085,-7.578 0.587,-7.65 0,-7.65 l 0,-0.692 4.607,0 0,0.692 c -0.8,0 -1.067,0.197 -1.067,1.086 l 0,2.562 c 0,1.584 0.711,2.988 1.637,2.988 0.729,0 1.156,-0.515 1.156,-2.082 l 0,-3.468 c 0,-1.014 -0.498,-1.086 -1.049,-1.086 l 0,-0.692 4.571,0 0,0.692 c -0.8,0 -1.067,0.197 -1.067,1.086 l 0,2.562 c 0,1.584 0.711,2.988 1.636,2.988 0.73,0 1.157,-0.515 1.157,-2.082 l 0,-3.468 c 0,-1.014 -0.498,-1.086 -1.05,-1.086 l 0,-0.692 4.572,0 0,0.692 c -0.8,0 -1.067,0.197 -1.067,1.086 l 0,3.736 c 0,1.957 -0.996,3.096 -2.58,3.096 -2.152,0 -2.544,-1.94 -2.757,-1.94 -0.231,0 -0.267,1.94 -2.508,1.94 -1.94,0 -2.615,-1.905 -2.847,-1.905 -0.107,0 -0.107,0.178 -0.107,0.481 l 0,1.174 c 0,0.16 -0.035,0.25 -0.16,0.25 C 2.775,0.268 1.228,0.07 0,0"
           inkscape:connector-curvature="0" />
      </g>
      <g
         transform="matrix(1.25,0,0,-1.25,-75.375435,571.62828)"
         id="g4325">
        <path
           id="path4327"
           style="fill:#231f20;fill-opacity:1;fill-rule:nonzero;stroke:none"
           d="m 0,0 c 0.8,0 1.281,-0.107 1.281,-0.979 l 0,-8.521 c 0,-0.748 -0.694,-0.926 -1.281,-0.926 l 0,-0.693 5.533,0 0,0.693 c -1.281,0 -1.797,0.072 -1.797,0.891 l 0,2.525 c 0,0.108 0.035,0.215 0.124,0.215 0.178,0 0.587,-1.121 2.242,-1.121 2.241,0 3.504,2.01 3.504,4.607 0,2.686 -1.547,4.27 -3.469,4.27 -1.814,0 -2.455,-1.496 -2.632,-1.496 -0.054,0 -0.089,0.09 -0.089,0.375 l 0,0.871 c 0,0.125 -0.036,0.25 -0.16,0.25 C 3.06,0.961 1.174,0.729 0,0.693 L 0,0 z m 5.337,-0.125 c 1.192,0 1.53,-0.979 1.53,-3.434 0,-2.08 -0.481,-3.273 -1.566,-3.273 -1.085,0 -1.565,1.334 -1.565,3.273 0,1.584 0.213,3.434 1.601,3.434"
           inkscape:connector-curvature="0" />
      </g>
      <g
         transform="matrix(1.25,0,0,-1.25,-52.14056,577.94428)"
         id="g4329">
        <path
           id="path4331"
           style="fill:#231f20;fill-opacity:1;fill-rule:nonzero;stroke:none"
           d="m 0,0 -0.8,0 c -0.374,-0.908 -1.014,-1.779 -2.277,-1.779 -0.997,0 -2.011,0.8 -2.011,3.095 l 0,0.338 5.035,0 c 0,2.51 -1.317,4.36 -3.683,4.36 -2.17,0 -4.091,-1.868 -4.091,-4.448 0,-2.562 1.921,-4.429 4.038,-4.429 1.814,0 3.238,1.066 3.789,2.863 m -5.088,2.793 c 0,1.744 0.481,2.527 1.21,2.527 0.818,0 1.21,-0.855 1.21,-2.437 l 0,-0.356 c 0,-0.125 -0.036,-0.179 -0.143,-0.179 l -2.277,0 0,0.445 z"
           inkscape:connector-curvature="0" />
      </g>
      <g
         transform="matrix(1.25,0,0,-1.25,-38.96556,580.32465)"
         id="g4333">
        <path
           id="path4335"
           style="fill:#231f20;fill-opacity:1;fill-rule:nonzero;stroke:none"
           d="m 0,0 c -0.836,0 -1.103,0.34 -1.103,1.141 l 0,6.457 c 0,0.248 -0.053,0.318 -0.267,0.318 -0.231,0 -1.565,-0.213 -3.344,-0.266 l 0,-0.693 c 0.604,0 1.156,-0.125 1.156,-0.978 l 0,-2.528 c 0,-1.972 -0.961,-3.131 -1.957,-3.131 -0.711,0 -0.96,0.643 -0.96,1.479 l 0,5.799 c 0,0.248 -0.054,0.318 -0.267,0.318 -0.231,0 -1.566,-0.213 -3.345,-0.266 l 0,-0.693 c 0.605,0 1.157,-0.125 1.157,-0.978 l 0,-3.915 c 0,-2.187 0.996,-3.023 2.366,-3.023 2.206,0 2.899,1.975 3.184,1.975 0.107,0 0.16,-0.073 0.16,-0.178 l 0,-1.584 c 0,-0.108 0.036,-0.213 0.196,-0.213 0.231,0 1.619,0.266 3.024,0.266 L 0,0 z"
           inkscape:connector-curvature="0" />
      </g>
      <g
         transform="matrix(1.25,0,0,-1.25,-23.667685,566.9359)"
         id="g4337">
        <path
           id="path4339"
           style="fill:#231f20;fill-opacity:1;fill-rule:nonzero;stroke:none"
           d="m 0,0 c 1.975,0 3.416,-0.943 3.629,-2.953 l 0.819,0 -0.072,3.717 -11.029,0 0,-0.817 c 1.014,0 1.548,-0.054 1.548,-1.211 l 0,-8.343 c 0,-0.569 -0.285,-0.979 -1.103,-0.979 l -0.445,0 0,-0.818 6.6,0 0,0.818 -0.302,0 c -1.264,0 -1.673,0.072 -1.673,0.979 l 0,3.861 c 0,0.232 0.089,0.266 0.427,0.266 1.637,0 2.153,-0.659 2.26,-2.295 l 0.782,0 0,5.267 -0.818,0 c 0,-1.851 -0.908,-2.207 -2.384,-2.207 -0.213,0 -0.267,0.07 -0.267,0.303 l 0,3.486 C -2.028,-0.197 -1.797,0 0,0"
           inkscape:connector-curvature="0" />
      </g>
      <g
         transform="matrix(1.25,0,0,-1.25,-7.10156,579.8559)"
         id="g4341">
        <path
           id="path4343"
           style="fill:#231f20;fill-opacity:1;fill-rule:nonzero;stroke:none"
           d="m 0,0 c -0.071,0 -0.178,-0.053 -0.338,-0.053 -0.267,0 -0.427,0.141 -0.427,0.516 l 0,3.361 c 0,2.438 -1.085,3.719 -4.163,3.719 -1.725,0 -3.113,-0.676 -3.113,-1.957 0,-0.695 0.445,-1.334 1.21,-1.334 0.889,0 1.245,0.551 1.245,1.137 0,0.82 -0.516,0.695 -0.516,1.068 0,0.213 0.249,0.391 0.961,0.391 1.245,0 1.921,-0.534 1.921,-1.868 l 0,-1.173 c -1.85,-0.09 -5.195,-0.569 -5.195,-3.061 0,-1.174 0.837,-2.08 2.313,-2.08 1.494,0 2.597,0.979 2.936,1.244 0.177,-0.301 0.551,-1.244 1.778,-1.244 0.676,0 1.513,0.32 1.513,1.156 C 0.125,-0.072 0.071,0 0,0 m -4.892,-0.25 c -0.73,0 -1.067,0.516 -1.067,1.479 0,1.652 1.974,2.009 2.65,2.009 0.089,0 0.089,-0.107 0.089,-0.8 0,-1.799 -0.676,-2.688 -1.672,-2.688"
           inkscape:connector-curvature="0" />
      </g>
      <g
         transform="matrix(1.25,0,0,-1.25,1.14119,570.42715)"
         id="g4345">
        <path
           id="path4347"
           style="fill:#231f20;fill-opacity:1;fill-rule:nonzero;stroke:none"
           d="m 0,0 c -1.761,0 -2.135,-1.316 -2.331,-1.316 -0.106,0 -0.124,0.089 -0.124,0.515 l 0,5.123 c 0,0.143 -0.071,0.196 -0.16,0.196 -0.302,0 -1.672,-0.284 -3.611,-0.356 l 0,-0.693 0.16,0 c 0.836,0 1.156,-0.25 1.156,-1.211 l 0,-6.065 c 0,-2.047 0,-3.718 -0.071,-5.07 l 0.676,0 c 0.16,0.266 0.889,1.441 1.085,1.441 0.249,0 1.014,-1.441 2.58,-1.441 2.508,0 4.073,2.045 4.073,4.5 C 3.433,-2.135 2.206,0 0,0 m -0.765,-8.184 c -1.121,0 -1.69,1.405 -1.69,3.575 0,2.384 0.569,3.523 1.69,3.523 0.925,0 1.459,-0.676 1.459,-3.824 0,-2.26 -0.499,-3.274 -1.459,-3.274"
           inkscape:connector-curvature="0" />
      </g>
      <g
         transform="matrix(1.25,0,0,-1.25,13.602815,570.42715)"
         id="g4349">
        <path
           id="path4351"
           style="fill:#231f20;fill-opacity:1;fill-rule:nonzero;stroke:none"
           d="m 0,0 c -1.423,0 -1.975,-1.904 -2.242,-1.904 -0.089,0 -0.089,0.125 -0.089,0.195 l 0,1.459 c 0,0.16 -0.035,0.25 -0.16,0.25 -0.195,0 -2.152,-0.232 -3.433,-0.268 l 0,-0.693 c 0.979,0 1.459,-0.107 1.459,-0.978 l 0,-4.893 c 0,-1.084 -0.659,-1.084 -1.513,-1.084 l 0,-0.695 5.747,0 0,0.695 c -1.157,0 -1.779,0 -1.779,1.084 l 0,2.721 c 0,1.744 0.658,2.509 0.925,2.509 0.249,0 0.053,-1.316 1.263,-1.316 0.818,0 1.21,0.658 1.21,1.387 C 1.388,-0.623 0.907,0 0,0"
           inkscape:connector-curvature="0" />
      </g>
      <g
         transform="matrix(1.25,0,0,-1.25,26.646065,579.8559)"
         id="g4353">
        <path
           id="path4355"
           style="fill:#231f20;fill-opacity:1;fill-rule:nonzero;stroke:none"
           d="m 0,0 c -0.071,0 -0.178,-0.053 -0.338,-0.053 -0.267,0 -0.427,0.141 -0.427,0.516 l 0,3.361 c 0,2.438 -1.085,3.719 -4.163,3.719 -1.725,0 -3.113,-0.676 -3.113,-1.957 0,-0.695 0.445,-1.334 1.21,-1.334 0.889,0 1.245,0.551 1.245,1.137 0,0.82 -0.516,0.695 -0.516,1.068 0,0.213 0.249,0.391 0.961,0.391 1.245,0 1.921,-0.534 1.921,-1.868 l 0,-1.173 c -1.85,-0.09 -5.195,-0.569 -5.195,-3.061 0,-1.174 0.837,-2.08 2.313,-2.08 1.494,0 2.597,0.979 2.936,1.244 0.177,-0.301 0.551,-1.244 1.778,-1.244 0.676,0 1.513,0.32 1.513,1.156 C 0.125,-0.072 0.071,0 0,0 m -4.892,-0.25 c -0.73,0 -1.067,0.516 -1.067,1.479 0,1.652 1.974,2.009 2.65,2.009 0.089,0 0.089,-0.107 0.089,-0.8 0,-1.799 -0.676,-2.688 -1.672,-2.688"
           inkscape:connector-curvature="0" />
      </g>
      <g
         transform="matrix(1.25,0,0,-1.25,-104.27318,592.5829)"
         id="g4357">
        <path
           id="path4359"
           style="fill:#231f20;fill-opacity:1;fill-rule:nonzero;stroke:none"
           d="m 0,0 c 0,2.01 -1.779,2.563 -4.003,2.563 l -6.119,0 -0.178,-0.801 0.356,0 c 0.978,0 1.369,-0.143 1.369,-0.641 0,-0.267 -0.053,-0.535 -0.142,-0.906 l -1.708,-7.918 c -0.16,-0.781 -0.338,-1.104 -1.405,-1.104 l -0.463,0 -0.177,-0.798 6.599,0 c 3.879,0 5.337,1.919 5.337,3.824 0,1.992 -2.01,2.455 -2.899,2.597 l 0,0.036 C -2.526,-2.936 0,-2.633 0,0 m -2.402,-5.959 c 0,-1.939 -1.156,-2.848 -4.625,-2.848 -1.654,0 -1.797,0.268 -1.797,0.821 0,0.16 0.036,0.408 0.089,0.658 l 0.819,3.822 0.889,0 c 2.366,0 4.625,-0.088 4.625,-2.453 m -3.985,3.256 -1.369,0 0.8,3.486 c 0.196,0.819 0.338,0.979 2.064,0.979 2.224,0 3.219,-0.446 3.219,-1.922 0,-2.508 -2.952,-2.543 -4.714,-2.543"
           inkscape:connector-curvature="0" />
      </g>
      <g
         transform="matrix(1.25,0,0,-1.25,-94.414185,603.65715)"
         id="g4361">
        <path
           id="path4363"
           style="fill:#231f20;fill-opacity:1;fill-rule:nonzero;stroke:none"
           d="m 0,0 c -0.285,0 -0.391,0.215 -0.391,0.568 0,0.961 1.049,4.948 1.689,7.028 l -1.333,0 -0.356,-1.084 -0.036,-0.037 c -0.142,0.375 -0.551,1.388 -1.921,1.388 -2.669,0 -4.234,-3.541 -4.234,-5.836 0,-1.564 0.694,-3.041 2.312,-3.041 1.353,0 2.313,1.244 2.616,1.582 l 0.035,-0.033 c 0.036,-0.59 0.125,-1.549 1.139,-1.549 1.209,0 2.152,1.549 2.579,2.508 L 1.548,1.869 C 1.37,1.424 0.587,0 0,0 m -3.736,-0.16 c -1.067,0 -1.388,0.978 -1.388,1.887 0,1.494 1.086,5.336 2.918,5.336 1.192,0 1.334,-1.086 1.334,-1.833 0,-1.441 -0.996,-5.39 -2.864,-5.39"
           inkscape:connector-curvature="0" />
      </g>
      <g
         transform="matrix(1.25,0,0,-1.25,-83.41381,593.82803)"
         id="g4365">
        <path
           id="path4367"
           style="fill:#231f20;fill-opacity:1;fill-rule:nonzero;stroke:none"
           d="m 0,0 c -1.192,0 -2.17,-1.797 -2.597,-2.545 l -0.036,0.037 c 0.036,0.16 0.125,0.533 0.125,1.067 C -2.508,-0.605 -2.9,0 -3.647,0 -4.945,0 -5.71,-1.779 -6.137,-2.775 l 0.533,-0.303 c 0.214,0.428 0.872,2.152 1.602,2.152 0.231,0 0.391,-0.23 0.391,-0.623 0,-0.764 -0.445,-2.721 -0.925,-4.375 l -0.783,-2.685 1.352,0 c 1.281,5.265 2.74,7.47 3.256,7.47 0.142,0 0.231,-0.072 0.231,-0.177 0,-0.196 -0.089,-0.215 -0.089,-0.516 0,-0.393 0.356,-0.641 0.783,-0.641 0.533,0 0.978,0.338 0.978,1.209 C 1.192,-0.568 0.783,0 0,0"
           inkscape:connector-curvature="0" />
      </g>
      <g
         transform="matrix(1.25,0,0,-1.25,-75.41756,593.82803)"
         id="g4369">
        <path
           id="path4371"
           style="fill:#231f20;fill-opacity:1;fill-rule:nonzero;stroke:none"
           d="m 0,0 c -2.864,0 -4.821,-2.598 -4.821,-5.318 0,-1.584 0.872,-3.559 3.594,-3.559 1.369,0 2.597,0.854 3.433,1.885 L 1.69,-6.439 c -0.622,-0.872 -1.636,-1.584 -2.739,-1.584 -1.513,0 -2.1,1.226 -2.1,2.615 0,2.668 1.406,4.715 3.114,4.715 0.693,0 1.156,-0.25 1.156,-0.498 0,-0.358 -0.658,-0.373 -0.658,-1.194 0,-0.498 0.391,-0.836 0.925,-0.836 0.782,0 1.227,0.641 1.227,1.282 C 2.615,-0.588 1.21,0 0,0"
           inkscape:connector-curvature="0" />
      </g>
      <g
         transform="matrix(1.25,0,0,-1.25,-61.64681,596.11802)"
         id="g4373">
        <path
           id="path4375"
           style="fill:#231f20;fill-opacity:1;fill-rule:nonzero;stroke:none"
           d="m 0,0 c 0,1.404 -1.263,1.832 -2.402,1.832 -2.899,0 -5.07,-2.953 -5.07,-5.693 0,-1.832 0.979,-3.184 3.042,-3.184 2.064,0 3.273,1.246 4.038,1.94 l -0.427,0.533 c -0.996,-0.961 -2.099,-1.619 -3.166,-1.619 -1.316,0 -1.921,0.853 -1.921,2.099 0,0.16 0.018,0.356 0.035,0.481 C -2.117,-2.83 0,-1.922 0,0 m -2.704,1.139 c 0.658,0 1.138,-0.393 1.138,-1.139 0,-1.727 -2.472,-2.686 -4.198,-2.953 l -0.035,0.035 c 0.106,1.369 1.174,4.057 3.095,4.057"
           inkscape:connector-curvature="0" />
      </g>
      <g
         transform="matrix(1.25,0,0,-1.25,-57.84006,603.65715)"
         id="g4377">
        <path
           id="path4379"
           style="fill:#231f20;fill-opacity:1;fill-rule:nonzero;stroke:none"
           d="m 0,0 c -0.285,0 -0.48,0.23 -0.48,0.713 0,0.373 0.125,0.728 0.267,1.314 L 2.242,11.9 2.099,12.098 C 1.263,11.973 0.214,11.865 -1.085,11.848 l -0.16,-0.694 0.409,0 c 0.854,0 1.156,-0.107 1.156,-0.675 0,-0.446 -0.177,-1.247 -0.391,-2.135 L -1.334,3.203 c -0.284,-1.14 -0.498,-1.957 -0.498,-2.562 0,-0.836 0.427,-1.567 1.494,-1.567 1.334,0 2.366,1.815 2.829,2.883 L 1.904,2.223 C 1.601,1.602 0.765,0 0,0"
           inkscape:connector-curvature="0" />
      </g>
      <g
         transform="matrix(1.25,0,0,-1.25,-47.45806,593.82803)"
         id="g4381">
        <path
           id="path4383"
           style="fill:#231f20;fill-opacity:1;fill-rule:nonzero;stroke:none"
           d="m 0,0 c -2.811,0 -4.75,-2.508 -4.75,-5.408 0,-1.887 1.103,-3.469 3.416,-3.469 2.917,0 4.803,2.65 4.803,5.211 C 3.469,-1.564 2.152,0 0,0 m -1.299,-8.184 c -1.387,0 -1.885,1.104 -1.885,2.313 0,1.779 0.889,5.178 3.059,5.178 1.495,0 2.028,-1.034 2.028,-2.438 0,-1.406 -0.782,-5.053 -3.202,-5.053"
           inkscape:connector-curvature="0" />
      </g>
      <g
         transform="matrix(1.25,0,0,-1.25,-32.319435,603.65715)"
         id="g4385">
        <path
           id="path4387"
           style="fill:#231f20;fill-opacity:1;fill-rule:nonzero;stroke:none"
           d="m 0,0 c -0.356,0 -0.516,0.285 -0.516,0.588 0,0.533 0.285,1.191 0.872,2.668 0.32,0.801 0.711,1.779 0.711,2.668 0,1.174 -0.729,1.939 -1.886,1.939 -1.529,0 -2.632,-1.584 -3.219,-2.545 l -0.036,0.036 c 0.036,0.162 0.125,0.535 0.125,1.068 0,0.836 -0.391,1.441 -1.139,1.441 -1.299,0 -2.063,-1.779 -2.49,-2.775 l 0.533,-0.303 c 0.214,0.428 0.872,2.153 1.601,2.153 0.232,0 0.392,-0.231 0.392,-0.624 0,-0.763 -0.445,-2.72 -0.925,-4.375 l -0.783,-2.685 1.423,0 0.801,2.969 c 0.782,2.847 1.885,4.715 3.433,4.715 0.427,0 0.818,-0.286 0.818,-0.889 0,-0.623 -0.231,-1.104 -0.694,-2.242 -0.533,-1.334 -0.889,-2.188 -0.889,-3.024 0,-0.961 0.409,-1.709 1.37,-1.709 1.441,0 2.312,1.549 2.935,2.705 L 1.814,2.1 C 1.512,1.512 0.729,0 0,0"
           inkscape:connector-curvature="0" />
      </g>
      <g
         transform="matrix(1.25,0,0,-1.25,-19.711435,603.65715)"
         id="g4389">
        <path
           id="path4391"
           style="fill:#231f20;fill-opacity:1;fill-rule:nonzero;stroke:none"
           d="m 0,0 c -0.285,0 -0.391,0.215 -0.391,0.568 0,0.961 1.049,4.948 1.69,7.028 l -1.334,0 -0.356,-1.084 -0.036,-0.037 c -0.142,0.375 -0.552,1.388 -1.921,1.388 -2.669,0 -4.234,-3.541 -4.234,-5.836 0,-1.564 0.694,-3.041 2.312,-3.041 1.353,0 2.313,1.244 2.616,1.582 l 0.035,-0.033 c 0.036,-0.59 0.125,-1.549 1.139,-1.549 1.209,0 2.152,1.549 2.579,2.508 L 1.548,1.869 C 1.37,1.424 0.587,0 0,0 m -3.736,-0.16 c -1.067,0 -1.388,0.978 -1.388,1.887 0,1.494 1.086,5.336 2.918,5.336 1.192,0 1.334,-1.086 1.334,-1.833 0,-1.441 -0.996,-5.39 -2.864,-5.39"
           inkscape:connector-curvature="0" />
      </g>
    </g>
  </g>
</svg>
